<?xml version="1.0" encoding="utf-8"?>
<!-- Generator: Adobe Illustrator 16.0.0, SVG Export Plug-In . SVG Version: 6.00 Build 0)  -->
<!DOCTYPE svg PUBLIC "-//W3C//DTD SVG 1.1//EN" "http://www.w3.org/Graphics/SVG/1.1/DTD/svg11.dtd">
<svg version="1.1" id="Layer_1" xmlns="http://www.w3.org/2000/svg" xmlns:xlink="http://www.w3.org/1999/xlink" x="0px" y="0px"
	 width="237.835px" height="213.422px" viewBox="0 0 237.835 213.422" enable-background="new 0 0 237.835 213.422"
	 xml:space="preserve">
<g>
	<path fill="#F2F2F2" d="M128.402,0.279c58.828,0,106.517,47.689,106.517,106.517S187.23,213.313,128.402,213.313
		c-17.227,0-81.58,0.819-87.842-2.034c-28.852-13.146,93.947-56.664,93.947-105c0-52.5-154.007-97.043-103.484-105.733
		C37.112-0.5,118.121,0.279,128.402,0.279z"/>
	<path fill="#597AD8" d="M42.402,0.279c58.828,0,106.517,47.689,106.517,106.517S101.23,213.313,42.402,213.313
		c-96.592,0,6.105-48.207,6.105-107.034S-53.19,0.279,42.402,0.279z"/>
	<text transform="matrix(1 0 0 1 53.6333 151.835)" enable-background="new    "><tspan x="0" y="0" fill="#F2F2F2" font-family="'TrajanPro-Bold'" font-size="112.5408" letter-spacing="10">V</tspan><tspan x="92.171" y="0" fill="#597AD8" font-family="'TrajanPro-Bold'" font-size="112.5408" letter-spacing="10">T</tspan></text>
</g>
</svg>
